<?xml version="1.0" encoding="utf-8"?>
<!-- Generator: Adobe Illustrator 17.1.0, SVG Export Plug-In . SVG Version: 6.00 Build 0)  -->
<!DOCTYPE svg PUBLIC "-//W3C//DTD SVG 1.1//EN" "http://www.w3.org/Graphics/SVG/1.1/DTD/svg11.dtd">
<svg version="1.1" id="Layer_1" xmlns="http://www.w3.org/2000/svg" xmlns:xlink="http://www.w3.org/1999/xlink" x="0px" y="0px"
	 viewBox="0 0 1024 1024" enable-background="new 0 0 1024 1024" xml:space="preserve">
<path fill="#231F20" d="M512,1012.3c-276.1,0-500-223.9-500-500c0-276.1,223.9-500,500-500c276.1,0,500,223.9,500,500
	C1012,788.5,788.1,1012.3,512,1012.3L512,1012.3z M512,90.5c-233,0-421.9,188.9-421.9,421.9c0,233,188.9,421.9,421.9,421.9
	c233,0,421.9-188.9,421.9-421.9C933.9,279.3,745,90.5,512,90.5L512,90.5z M543.7,372.3v63.5h86.9L617.2,524h-73.5
	c0,112,0,238.3,0,238.3h-86.6c0,0,0-124.9,0-238.3h-63.8v-88.2h63.8v-68.6c0-41,20.1-104.8,107.9-104.8l64.4,0.3v85.7
	c0,0-46.8,0-56.2,0C563.8,348.4,543.7,352.8,543.7,372.3L543.7,372.3z"/>
</svg>
