<?xml version="1.0" encoding="utf-8"?>
<!-- Generator: Adobe Illustrator 17.1.0, SVG Export Plug-In . SVG Version: 6.00 Build 0)  -->
<!DOCTYPE svg PUBLIC "-//W3C//DTD SVG 1.1//EN" "http://www.w3.org/Graphics/SVG/1.1/DTD/svg11.dtd">
<svg version="1.1" id="Layer_1" xmlns="http://www.w3.org/2000/svg" xmlns:xlink="http://www.w3.org/1999/xlink" x="0px" y="0px"
	 viewBox="0 0 1024 1024" enable-background="new 0 0 1024 1024" xml:space="preserve">
<path fill="#231F20" d="M512,1012c-276.1,0-500-223.9-500-500C12,235.9,235.9,12,512,12c276.1,0,500,223.9,500,500
	C1012,788.1,788.1,1012,512,1012L512,1012z M512,90.1C279,90.1,90.1,279,90.1,512S279,933.9,512,933.9
	c233,0,421.9-188.9,421.9-421.9S745,90.1,512,90.1L512,90.1z M550.8,623.4c-31.1,0-60.5-16.8-70.5-35.9c0,0-16.8,66.2-20.3,79
	c-12.4,45.1-49.2,90.3-52.1,94c-1.9,2.6-6.4,1.8-6.8-1.6c-0.8-5.7-10.2-62.7,0.9-109.1c5.6-23.2,37.1-156.5,37.1-156.5
	c0,0-9.1-18.4-9.1-45.5c0-42.5,24.7-74.4,55.6-74.4c26.1,0,38.9,19.7,38.9,43.2c0,26.3-16.8,65.6-25.5,101.9
	c-7.3,30.5,15.3,55.3,45.6,55.3c54.6,0,91.4-69.8,91.4-152.6c0-63-42.7-110.1-120.1-110.1c-87.5,0-142.1,64.9-142.1,137.6
	c0,25,7.4,42.7,19.1,56.3c5.3,6.2,6.1,8.8,4.1,16c-1.4,5.3-4.5,18.1-5.9,23.1c-1.9,7.3-7.8,9.8-14.5,7.2
	c-40.3-16.4-59-60.3-59-109.7c0-81.6,69.1-179.4,206.2-179.4c110.2,0,182.7,79.3,182.7,164.5C706.4,539.2,643.5,623.4,550.8,623.4
	L550.8,623.4z"/>
</svg>
