<?xml version="1.0" encoding="utf-8"?>
<!-- Generator: Adobe Illustrator 17.1.0, SVG Export Plug-In . SVG Version: 6.00 Build 0)  -->
<!DOCTYPE svg PUBLIC "-//W3C//DTD SVG 1.1//EN" "http://www.w3.org/Graphics/SVG/1.1/DTD/svg11.dtd">
<svg version="1.1" id="Layer_1" xmlns="http://www.w3.org/2000/svg" xmlns:xlink="http://www.w3.org/1999/xlink" x="0px" y="0px"
	 viewBox="0 0 1024 1024" enable-background="new 0 0 1024 1024" xml:space="preserve">
<path fill="#231F20" d="M512,1012c-276.1,0-500-223.9-500-500C12,235.9,235.9,12,512,12c276.1,0,500,223.9,500,500
	C1012,788.1,788.1,1012,512,1012L512,1012z M512,90.1C279,90.1,90.1,279,90.1,512C90.1,745,279,933.9,512,933.9
	c233,0,421.9-188.9,421.9-421.9C933.9,279,745,90.1,512,90.1L512,90.1z M462,762c0-110.5-89.5-200-200-200V462
	c165.7,0,300,134.4,300,300H462L462,762z M662,762c0-220.9-179.1-400-400-400V262c276.2,0,500,223.9,500,500H662L662,762z M312,762
	c-27.6,0-50-22.4-50-50c0-27.6,22.4-50,50-50s50,22.4,50,50C362,739.6,339.6,762,312,762L312,762z"/>
</svg>
