<?xml version="1.0" encoding="utf-8"?>
<!-- Generator: Adobe Illustrator 17.1.0, SVG Export Plug-In . SVG Version: 6.00 Build 0)  -->
<!DOCTYPE svg PUBLIC "-//W3C//DTD SVG 1.1//EN" "http://www.w3.org/Graphics/SVG/1.1/DTD/svg11.dtd">
<svg version="1.1" id="Layer_1" xmlns="http://www.w3.org/2000/svg" xmlns:xlink="http://www.w3.org/1999/xlink" x="0px" y="0px"
	 viewBox="0 0 1024 1024" enable-background="new 0 0 1024 1024" xml:space="preserve">
<path fill="#231F20" d="M512,1012c-276.1,0-500-223.9-500-500C12,235.9,235.9,12,512,12c276.1,0,500,223.9,500,500
	C1012,788.1,788.1,1012,512,1012L512,1012z M512,90.1C279,90.1,90.1,279,90.1,512C90.1,745,279,933.9,512,933.9
	c233,0,421.9-188.9,421.9-421.9C933.9,279,745,90.1,512,90.1L512,90.1z M704.7,363.3c23.6-2.5,48.9-12.4,57.3-17.5
	c-14.5,26-34.9,45.7-50,56.9c0,0.6,0.1,1.1,0.1,1.6c0,0.5-0.1,0.9-0.1,1.4c0,0.2,0.1,0.4,0.1,0.6c6.9,179.2-122.3,324.4-288.7,324.4
	c-58.6,0-113.9-18-161.4-49.1c69.8,11.9,126.3-25.5,142.8-46.1c-46.4,0-88.9-42.7-92.2-75.4c9.3,1.5,30.8,3.5,42.9-3.5
	c-63-18.6-80.3-69.8-79.5-108.5c10.5,11,33,13.5,45.1,12.5c-35.5-23.6-62.6-88.4-31.3-146.7c50.9,71.4,141.3,113.1,218.5,115.2h0.1
	c-1.8-8-2.7-16.2-2.7-24.8c0-61.4,46.2-111.1,103.1-111.1c29.4,0,55.8,13.2,74.6,34.3c-0.1,0-0.1-0.1-0.1-0.1
	c16.5,0,49.9-14.5,64.4-24.5C742.2,325.8,719.8,354.6,704.7,363.3L704.7,363.3z"/>
</svg>
