<?xml version="1.0" encoding="utf-8"?>
<!-- Generator: Adobe Illustrator 17.1.0, SVG Export Plug-In . SVG Version: 6.00 Build 0)  -->
<!DOCTYPE svg PUBLIC "-//W3C//DTD SVG 1.1//EN" "http://www.w3.org/Graphics/SVG/1.1/DTD/svg11.dtd">
<svg version="1.1" id="Layer_1" xmlns="http://www.w3.org/2000/svg" xmlns:xlink="http://www.w3.org/1999/xlink" x="0px" y="0px"
	 viewBox="0 0 1024 1024" enable-background="new 0 0 1024 1024" xml:space="preserve">
<path fill="#231F20" d="M512,1012c-276.1,0-500-223.9-500-500C12,235.9,235.9,12,512,12c276.1,0,500,223.9,500,500
	C1012,788.1,788.1,1012,512,1012L512,1012z M512,90.1C279,90.1,90.1,279,90.1,512S279,933.9,512,933.9
	c233,0,421.9-188.9,421.9-421.9S745,90.1,512,90.1L512,90.1z M670.7,762H353.4c-50.5,0-91.4-41.9-91.4-93.4v-86.5
	c0-51.5,40.9-93.4,91.4-93.4h317.3c50.5,0,91.3,41.8,91.3,93.4v86.5C762,720.1,721.1,762,670.7,762L670.7,762z M421.4,534.4h-68.3
	v22.7h22.3v159h22.9v-159h23.1V534.4L421.4,534.4z M489.2,580.5h-22.4v104.8c-2.3,2.6-6.1,4.8-8.8,6.5c-2.7,1.8-6.4,2.7-8.1,2.7
	c-2.2,0-3.9-0.7-4.9-2c-1-1.3-1.5-3.4-1.5-6.3V580.5h-23.1v114.1c0,7.3,2.1,12.8,4.9,16.5c2.8,3.8,6.9,5.5,12.4,5.5
	c4.5,0,9.1-1.2,13.8-3.9c4.8-2.6,9.3-8,13.8-12.8v16.4h23.8V580.5L489.2,580.5z M580.2,608.7c0-10.2-2-18-5.9-23.3
	c-3.9-5.3-9.8-8.1-17.3-8.1c-3.8,0-7.4,1-11.1,3c-3.4,2-8.3,4.9-11.5,8.7v-54.5h-22.6v180.4h24v-9.5c3.2,3.9,6.6,6.6,10.2,8.4
	c3.6,1.9,7.8,2.8,12.6,2.8c7,0,12.4-2.4,16.2-7.1c3.6-4.8,5.5-11.5,5.5-20.3V608.7L580.2,608.7z M670.8,673.1H647v5.5
	c0,7.2-0.9,11.6-2.3,13.6c-1.5,2.1-4.1,3.1-8,3.1c-3.8,0-6.3-1.3-7.8-3.6c-1.5-2.5-2.4-6.8-2.4-13.1v-30.3h44.3v-22.7
	c0-11.3-2.8-30.4-8.6-36.5c-5.6-6-13.8-9-24.4-9c-10.4,0-18.7,3.2-25.3,9.8c-6.5,6.4-9.8,25.4-9.8,35.7v53.8c0,11.5,3,20.6,9,26.9
	c6,6.6,14.1,9.9,24.5,9.9c11.5,0,20.1-3.1,26-9.3c5.9-6.2,8.6-15.4,8.6-27.6V673.1L670.8,673.1z M626.5,625.5
	c0-5.1,0.9-19.1,2.4-21.2c1.6-2.2,4.3-3.3,7.9-3.3c3.6,0,6.3,1.1,7.7,3.3c1.6,2.1,2.4,16.2,2.4,21.2v4.2h-20.5V625.5L626.5,625.5z
	 M547.2,696.9c-2,0-3.9-0.5-5.7-1.4c-1.9-0.9-5.2-2.4-7.1-4.4v-88.9c1.6-1.6,4.7-3,6.3-3.7c1.7-0.8,3.3-1.2,5.1-1.2
	c3.1,0,5.6,1,7.4,3.2c1.6,2.2,4.5,5.4,4.5,9.5v75.7c0,4-2.8,6.9-4.1,8.5C552.3,696,550.1,696.9,547.2,696.9L547.2,696.9z
	 M602.4,416.7c-6,10.9-11.6,18.2-18.5,23.4c-9,6.8-18.8,6.2-21.9,3.1c-4.6-4.7-5.3-17.1-5.3-25.7V307h22.8v100.7
	c0,3.4,0.6,5.8,1.8,7.3c1.2,1.5,1.7,2.2,4.4,2.2c2.1,0,14-16.1,16.7-19.3v-91h22.8v134h-22.8V416.7L602.4,416.7z M501.3,444.5
	c-12.4,0-16-3.5-23.5-10.6c-7.4-7.2-11.3-16.9-11.3-29v-59.7c0-11,3.4-20.3,11.1-26.9c7.7-6.5,11.3-11.4,24.3-11.4
	c11.8,0,15.4,4.1,22.6,11.4c6.2,6.2,9.8,16.9,9.8,27.8v59.4c0,12.2-3.6,21.8-11,28.7C515.9,441,514.2,444.5,501.3,444.5L501.3,444.5
	z M511.8,344.2c0-3.1-1.3-5.6-3.5-7.5c-2.3-2-4-3-7.7-3c-3.5,0-6.3,1-8.5,3c-2.2,1.9-3.3,4.4-3.3,7.5v63.4c0,3.9,1,6.9,3.1,9.1
	c1.9,2.1,4.8,3.2,8.6,3.2c3.9,0,5.5-1.1,7.8-3.2c2.2-2.3,3.4-5.2,3.4-9.1V344.2L511.8,344.2z M421.3,443.8h-23.5V390l-41.1-128H389
	l20.9,77.2h2l19.8-77.2h32.6l-43,124.4V443.8L421.3,443.8z"/>
</svg>
